<svg width="670" height="738" viewBox="0 0 670 738" fill="none" xmlns="http://www.w3.org/2000/svg">
<rect width="670" height="738" fill="#BCBCBC"/>
<g clip-path="url(#clip0_0_1)">
<rect width="1440" height="4597" transform="translate(-770 -202)" fill="white"/>
<rect x="1" y="1" width="713" height="657" rx="19" fill="white" stroke="#3030FF" stroke-width="2"/>
<line x1="8.74228e-08" y1="54" x2="715" y2="54.0001" stroke="#3030FF" stroke-width="2"/>
<circle cx="28.5" cy="27.5" r="8.5" fill="#3030FF" fill-opacity="0.8"/>
<circle opacity="0.6" cx="54.5" cy="27.5" r="8.5" fill="#3030FF"/>
<circle opacity="0.4" cx="80.5" cy="27.5" r="8.5" fill="#3030FF"/>
<rect x="20" y="103" width="531" height="42" fill="#3030FF" fill-opacity="0.2"/>
<rect x="20" y="169" width="287" height="42" fill="#3030FF" fill-opacity="0.2"/>
<rect x="20" y="344" width="203" height="24" rx="12" fill="#3030FF" fill-opacity="0.2"/>
<rect x="20" y="388" width="134" height="14" fill="#3030FF" fill-opacity="0.2"/>
<rect x="20" y="418" width="118" height="14" fill="#3030FF" fill-opacity="0.2"/>
<rect x="20" y="448" width="77" height="14" fill="#3030FF" fill-opacity="0.2"/>
<rect x="20" y="478" width="190" height="14" fill="#3030FF" fill-opacity="0.2"/>
<rect x="28" y="269" width="244" height="26" fill="#3030FF" fill-opacity="0.2"/>
<rect x="21" y="262" width="258" height="40" stroke="#3030FF" stroke-opacity="0.2" stroke-width="2"/>
<g opacity="0.8">
<path fill-rule="evenodd" clip-rule="evenodd" d="M322.229 19C322.229 18.4477 321.781 18 321.229 18H318.714C317.768 18 317 18.7611 317 19.7V33.3C317 34.2389 317.768 35 318.714 35H327.286C328.232 35 329 34.2389 329 33.3V25.715C329 25.1627 328.552 24.715 328 24.715H324.714C323.341 24.715 322.229 23.6114 322.229 22.25V19ZM320.857 27.435C320.431 27.435 320.086 27.7775 320.086 28.2C320.086 28.6225 320.431 28.965 320.857 28.965H323C323.426 28.965 323.771 28.6225 323.771 28.2C323.771 27.7775 323.426 27.435 323 27.435H320.857ZM320.857 30.41C320.431 30.41 320.086 30.7525 320.086 31.175C320.086 31.5975 320.431 31.94 320.857 31.94H325.143C325.569 31.94 325.914 31.5975 325.914 31.175C325.914 30.7525 325.569 30.41 325.143 30.41H320.857Z" fill="#3030FF"/>
<path d="M327.014 23.185C327.461 23.185 327.683 22.6443 327.366 22.33L324.623 19.61C324.308 19.297 323.771 19.5206 323.771 19.965V22.25C323.771 22.7664 324.194 23.185 324.714 23.185H327.014Z" fill="#3030FF"/>
</g>
<text opacity="0.8" fill="#3030FF" xml:space="preserve" style="white-space: pre" font-family="Roboto" font-size="16" letter-spacing="0px"><tspan x="335" y="31.9688">Epsilone</tspan></text>
<mask id="path-17-inside-1_0_1" fill="white">
<path fill-rule="evenodd" clip-rule="evenodd" d="M626.787 336.235H629.682V392.699H626.787V692.089C626.787 698.118 625.6 704.088 623.294 709.659C620.987 715.229 617.607 720.29 613.345 724.553C609.083 728.816 604.024 732.198 598.456 734.505C592.888 736.812 586.92 738 580.893 738H412.894C406.867 738 400.899 736.812 395.331 734.505C389.763 732.198 384.704 728.816 380.442 724.553C376.18 720.29 372.8 715.229 370.493 709.659C368.187 704.088 367 698.118 367 692.089V256.911C367 250.882 368.187 244.912 370.493 239.341C372.8 233.771 376.18 228.71 380.442 224.447C384.704 220.184 389.763 216.802 395.331 214.495C400.899 212.187 406.867 211 412.894 211H580.893C586.92 211 592.888 212.187 598.456 214.495C604.024 216.802 609.083 220.184 613.345 224.447C617.607 228.71 620.987 233.771 623.294 239.341C625.6 244.912 626.787 250.882 626.787 256.911V336.235ZM617.42 691.491V257.523C617.419 248.444 613.797 239.736 607.349 233.316C600.901 226.896 592.157 223.289 583.038 223.288H561.037C562.048 225.758 562.434 228.438 562.16 231.091C561.887 233.744 560.962 236.29 559.467 238.503C557.973 240.717 555.955 242.531 553.59 243.785C551.226 245.039 548.589 245.694 545.91 245.694H449.346C446.667 245.694 444.029 245.038 441.665 243.785C439.301 242.531 437.283 240.717 435.788 238.503C434.294 236.29 433.369 233.744 433.095 231.091C432.821 228.438 433.207 225.758 434.218 223.288H413.67C404.552 223.289 395.807 226.896 389.359 233.316C382.912 239.737 379.289 248.444 379.288 257.523V691.491C379.287 700.573 382.908 709.283 389.356 715.705C395.804 722.128 404.55 725.737 413.67 725.738H583.038C592.159 725.737 600.905 722.128 607.353 715.705C613.8 709.283 617.422 700.573 617.42 691.491Z"/>
</mask>
<path fill-rule="evenodd" clip-rule="evenodd" d="M626.787 336.235H629.682V392.699H626.787V692.089C626.787 698.118 625.6 704.088 623.294 709.659C620.987 715.229 617.607 720.29 613.345 724.553C609.083 728.816 604.024 732.198 598.456 734.505C592.888 736.812 586.92 738 580.893 738H412.894C406.867 738 400.899 736.812 395.331 734.505C389.763 732.198 384.704 728.816 380.442 724.553C376.18 720.29 372.8 715.229 370.493 709.659C368.187 704.088 367 698.118 367 692.089V256.911C367 250.882 368.187 244.912 370.493 239.341C372.8 233.771 376.18 228.71 380.442 224.447C384.704 220.184 389.763 216.802 395.331 214.495C400.899 212.187 406.867 211 412.894 211H580.893C586.92 211 592.888 212.187 598.456 214.495C604.024 216.802 609.083 220.184 613.345 224.447C617.607 228.71 620.987 233.771 623.294 239.341C625.6 244.912 626.787 250.882 626.787 256.911V336.235ZM617.42 691.491V257.523C617.419 248.444 613.797 239.736 607.349 233.316C600.901 226.896 592.157 223.289 583.038 223.288H561.037C562.048 225.758 562.434 228.438 562.16 231.091C561.887 233.744 560.962 236.29 559.467 238.503C557.973 240.717 555.955 242.531 553.59 243.785C551.226 245.039 548.589 245.694 545.91 245.694H449.346C446.667 245.694 444.029 245.038 441.665 243.785C439.301 242.531 437.283 240.717 435.788 238.503C434.294 236.29 433.369 233.744 433.095 231.091C432.821 228.438 433.207 225.758 434.218 223.288H413.67C404.552 223.289 395.807 226.896 389.359 233.316C382.912 239.737 379.289 248.444 379.288 257.523V691.491C379.287 700.573 382.908 709.283 389.356 715.705C395.804 722.128 404.55 725.737 413.67 725.738H583.038C592.159 725.737 600.905 722.128 607.353 715.705C613.8 709.283 617.422 700.573 617.42 691.491Z" fill="white"/>
<path d="M629.682 336.235H631.682V334.235H629.682V336.235ZM626.787 336.235H624.787V338.235H626.787V336.235ZM629.682 392.699V394.699H631.682V392.699H629.682ZM626.787 392.699V390.699H624.787V392.699H626.787ZM613.345 724.553L614.759 725.967L613.345 724.553ZM598.456 734.505L599.221 736.353H599.221L598.456 734.505ZM395.331 734.505L394.566 736.353H394.566L395.331 734.505ZM380.442 724.553L379.028 725.967H379.028L380.442 724.553ZM370.493 709.659L368.646 710.424H368.646L370.493 709.659ZM367 692.089H369H367ZM367 256.911H369V256.911L367 256.911ZM370.493 239.341L368.646 238.576L370.493 239.341ZM380.442 224.447L381.857 225.861V225.861L380.442 224.447ZM395.331 214.495L396.097 216.342L395.331 214.495ZM412.894 211L412.894 213H412.894V211ZM580.893 211V213V211ZM598.456 214.495L599.221 212.647V212.647L598.456 214.495ZM613.345 224.447L611.93 225.861L611.931 225.861L613.345 224.447ZM623.294 239.341L621.446 240.107V240.107L623.294 239.341ZM617.42 257.523H619.42V257.523L617.42 257.523ZM617.42 691.491H615.42V691.492L617.42 691.491ZM607.349 233.316L605.938 234.734L607.349 233.316ZM583.038 223.288L583.039 221.288H583.038V223.288ZM561.037 223.288V221.288H558.057L559.186 224.046L561.037 223.288ZM553.59 243.785L552.653 242.018L553.59 243.785ZM545.91 245.694L545.91 243.694H545.91V245.694ZM449.346 245.694V243.694H449.346L449.346 245.694ZM441.665 243.785L440.728 245.551H440.728L441.665 243.785ZM434.218 223.288L436.069 224.046L437.198 221.288H434.218V223.288ZM413.67 223.288V221.288H413.67L413.67 223.288ZM389.359 233.316L387.948 231.899L389.359 233.316ZM379.288 257.523L377.288 257.523V257.523H379.288ZM379.288 691.491L381.288 691.492V691.491H379.288ZM389.356 715.705L390.767 714.288H390.767L389.356 715.705ZM413.67 725.738L413.669 727.738H413.67V725.738ZM583.038 725.738V727.738H583.039L583.038 725.738ZM607.353 715.705L605.941 714.288L607.353 715.705ZM629.682 334.235H626.787V338.235H629.682V334.235ZM631.682 392.699V336.235H627.682V392.699H631.682ZM626.787 394.699H629.682V390.699H626.787V394.699ZM628.787 692.089V392.699H624.787V692.089H628.787ZM625.141 710.424C627.548 704.611 628.787 698.381 628.787 692.089H624.787C624.787 697.856 623.652 703.566 621.446 708.893L625.141 710.424ZM614.759 725.967C619.207 721.518 622.735 716.236 625.141 710.424L621.446 708.893C619.24 714.221 616.007 719.062 611.931 723.139L614.759 725.967ZM599.221 736.353C605.032 733.945 610.312 730.416 614.759 725.967L611.931 723.139C607.855 727.217 603.016 730.451 597.69 732.658L599.221 736.353ZM580.893 740C587.182 740 593.411 738.761 599.221 736.353L597.69 732.658C592.365 734.864 586.657 736 580.893 736V740ZM412.894 740H580.893V736H412.894V740ZM394.566 736.353C400.377 738.761 406.605 740 412.894 740V736C407.13 736 401.422 734.864 396.097 732.658L394.566 736.353ZM379.028 725.967C383.475 730.416 388.755 733.945 394.566 736.353L396.097 732.658C390.771 730.451 385.933 727.217 381.857 723.139L379.028 725.967ZM368.646 710.424C371.052 716.236 374.58 721.518 379.028 725.967L381.857 723.139C377.781 719.062 374.547 714.221 372.341 708.893L368.646 710.424ZM365 692.089C365 698.381 366.239 704.611 368.646 710.424L372.341 708.893C370.135 703.566 369 697.856 369 692.089H365ZM365 256.911V692.089H369V256.911H365ZM368.646 238.576C366.239 244.389 365 250.619 365 256.911L369 256.911C369 251.144 370.135 245.434 372.341 240.107L368.646 238.576ZM379.028 223.033C374.58 227.482 371.052 232.764 368.646 238.576L372.341 240.107C374.547 234.779 377.781 229.938 381.857 225.861L379.028 223.033ZM394.566 212.647C388.755 215.055 383.475 218.584 379.028 223.033L381.857 225.861C385.933 221.783 390.771 218.549 396.097 216.342L394.566 212.647ZM412.894 209C406.605 209 400.377 210.239 394.566 212.647L396.097 216.342C401.422 214.136 407.13 213 412.894 213L412.894 209ZM580.893 209H412.894V213H580.893V209ZM599.221 212.647C593.411 210.239 587.182 209 580.893 209V213C586.657 213 592.365 214.136 597.69 216.342L599.221 212.647ZM614.759 223.033C610.312 218.584 605.032 215.055 599.221 212.647L597.69 216.342C603.016 218.549 607.855 221.783 611.93 225.861L614.759 223.033ZM625.141 238.576C622.735 232.764 619.207 227.482 614.759 223.033L611.931 225.861C616.007 229.938 619.24 234.779 621.446 240.107L625.141 238.576ZM628.787 256.911C628.787 250.619 627.548 244.389 625.141 238.576L621.446 240.107C623.652 245.434 624.787 251.144 624.787 256.911H628.787ZM628.787 336.235V256.911H624.787V336.235H628.787ZM615.42 257.523V691.491H619.42V257.523H615.42ZM605.938 234.734C612.009 240.779 615.419 248.977 615.42 257.523L619.42 257.523C619.419 247.91 615.584 238.694 608.76 231.899L605.938 234.734ZM583.038 225.288C591.629 225.289 599.866 228.688 605.938 234.734L608.76 231.899C601.937 225.105 592.685 221.289 583.039 221.288L583.038 225.288ZM561.037 225.288H583.038V221.288H561.037V225.288ZM564.15 231.296C564.457 228.315 564.024 225.305 562.888 222.53L559.186 224.046C560.073 226.211 560.411 228.56 560.171 230.886L564.15 231.296ZM561.125 239.623C562.803 237.137 563.842 234.277 564.15 231.296L560.171 230.886C559.931 233.211 559.12 235.443 557.81 237.384L561.125 239.623ZM554.528 245.551C557.181 244.144 559.447 242.108 561.125 239.623L557.81 237.384C556.499 239.326 554.728 240.917 552.653 242.018L554.528 245.551ZM545.91 247.694C548.915 247.694 551.874 246.959 554.528 245.551L552.653 242.018C550.578 243.118 548.262 243.694 545.91 243.694L545.91 247.694ZM449.346 247.694H545.91V243.694H449.346V247.694ZM440.728 245.551C443.381 246.959 446.341 247.694 449.346 247.694L449.346 243.694C446.993 243.694 444.678 243.118 442.602 242.018L440.728 245.551ZM434.131 239.623C435.809 242.108 438.075 244.144 440.728 245.551L442.602 242.018C440.527 240.917 438.756 239.326 437.446 237.384L434.131 239.623ZM431.106 231.296C431.413 234.277 432.452 237.137 434.131 239.623L437.446 237.384C436.135 235.443 435.325 233.211 435.085 230.886L431.106 231.296ZM432.367 222.53C431.231 225.305 430.798 228.315 431.106 231.296L435.085 230.886C434.845 228.56 435.183 226.211 436.069 224.046L432.367 222.53ZM413.67 225.288H434.218V221.288H413.67V225.288ZM390.771 234.734C396.843 228.688 405.079 225.289 413.67 225.288L413.67 221.288C404.024 221.289 394.771 225.105 387.948 231.899L390.771 234.734ZM381.288 257.523C381.289 248.977 384.699 240.779 390.771 234.734L387.948 231.899C381.125 238.694 377.289 247.91 377.288 257.523L381.288 257.523ZM381.288 691.491V257.523H377.288V691.491H381.288ZM390.767 714.288C384.695 708.24 381.287 700.04 381.288 691.492L377.288 691.491C377.287 701.105 381.121 710.325 387.944 717.122L390.767 714.288ZM413.67 723.738C405.078 723.737 396.839 720.337 390.767 714.288L387.944 717.122C394.768 723.919 404.022 727.737 413.669 727.738L413.67 723.738ZM583.038 723.738H413.67V727.738H583.038V723.738ZM605.941 714.288C599.869 720.337 591.631 723.737 583.038 723.738L583.039 727.738C592.687 727.737 601.94 723.919 608.764 717.122L605.941 714.288ZM615.42 691.492C615.422 700.04 612.013 708.24 605.941 714.288L608.764 717.122C615.588 710.325 619.422 701.105 619.42 691.491L615.42 691.492Z" fill="#3030FF" mask="url(#path-17-inside-1_0_1)"/>
<rect x="431" y="486" width="134" height="14" fill="#3030FF" fill-opacity="0.2"/>
<rect x="439" y="514" width="118" height="14" fill="#3030FF" fill-opacity="0.2"/>
<rect x="460" y="542" width="77" height="14" fill="#3030FF" fill-opacity="0.2"/>
<circle opacity="0.2" cx="497.5" cy="343.5" r="49.5" fill="#3030FF"/>
<rect opacity="0.2" x="414" y="423" width="167" height="33" rx="16.5" fill="#3030FF"/>
<g filter="url(#filter0_f_0_1)">
<rect x="-796" y="591" width="1493" height="352" fill="white"/>
</g>
</g>
<defs>
<filter id="filter0_f_0_1" x="-846" y="541" width="1593" height="452" filterUnits="userSpaceOnUse" color-interpolation-filters="sRGB">
<feFlood flood-opacity="0" result="BackgroundImageFix"/>
<feBlend mode="normal" in="SourceGraphic" in2="BackgroundImageFix" result="shape"/>
<feGaussianBlur stdDeviation="25" result="effect1_foregroundBlur_0_1"/>
</filter>
<clipPath id="clip0_0_1">
<rect width="1440" height="4597" fill="white" transform="translate(-770 -202)"/>
</clipPath>
</defs>
</svg>
