<?xml version="1.0" encoding="utf-8"?>
<!-- Generator: Adobe Illustrator 26.1.0, SVG Export Plug-In . SVG Version: 6.00 Build 0)  -->
<svg version="1.1" id="Layer_1" xmlns="http://www.w3.org/2000/svg" xmlns:xlink="http://www.w3.org/1999/xlink" x="0px" y="0px"
	 viewBox="0 0 1080 1080" style="enable-background:new 0 0 1080 1080;" xml:space="preserve">
<style type="text/css">
	.st0{fill:#3030FF;}
	.st1{fill:none;}
	.st2{display:none;}
	.st3{display:inline;fill:#3030FF;}
	.st4{font-family:'TiltNeon-Regular';}
	.st5{font-size:150px;}
</style>
<g>
	<path class="st0" d="M600.44,317.42c-122.93,0-222.58,99.65-222.58,222.58h445.17C823.03,417.07,723.38,317.42,600.44,317.42z
		 M600.44,341.01c104.63,0,190.66,81.14,198.49,183.74H402.06C409.79,422.15,495.81,341.01,600.44,341.01z"/>
	<path class="st0" d="M600.44,197.43c-175.91,0-321.32,133.41-340.43,304.24c-1.42,12.61-2.14,25.42-2.14,38.33
		s0.71,25.73,2.14,38.33c19.12,170.83,164.52,304.24,340.43,304.24c188.93,0,342.57-153.74,342.57-342.57
		S789.37,197.43,600.44,197.43z M600.44,852.07c-158.73,0-290.2-119.17-309.52-272.71c-1.12-7.93-1.83-15.96-2.14-24.1
		c-0.31-5.08-0.41-10.17-0.41-15.25s0.1-10.17,0.41-15.25c0.31-8.13,1.02-16.17,2.14-24.1c19.32-153.54,150.8-272.71,309.52-272.71
		c172.05,0,312.07,140.02,312.07,312.07S772.49,852.07,600.44,852.07z"/>
	<path class="st0" d="M829.94,535.56c0-126.6-102.9-229.5-229.5-229.5c-121.41,0-221.16,94.77-228.99,214.25H145.24v30.5h226.22
		c2.34,21.61,12.32,87.87,67.17,143.82c6.22,6.35,52.99,52.82,126.53,67.69c37.38,7.55,66.54,6.34,83.39,4.15
		c25.73-3.34,66.87-19.38,88.56-38.82c7.76-6.95,5.99-19.09-7.74-15.85c-10.82,4.83-21.88,11.27-32.7,16.1
		c-18.77,6.92-36.42,8.29-48.13,9.7c-6.53,0.79-39.22,4.51-81.06-5.89c-16.22-4.03-67.24-17.46-110.5-64.63
		c-42.04-45.84-52.09-96.64-54.93-116.26c142.63,0,285.26,0,427.88,0V535.56z M402.06,520.31c7.73-102.6,93.75-183.74,198.38-183.74
		c104.63,0,190.66,81.14,198.49,183.74H402.06z"/>
	<circle class="st0" cx="152.86" cy="540" r="41.87"/>
</g>
<rect x="217.59" y="812.13" class="st1" width="644.55" height="181.16"/>
<text transform="matrix(1 0 0 1 217.5887 924.0273)" class="st2"><tspan x="0" y="0" class="st3 st4 st5">EPSI</tspan><tspan x="280.35" y="0" class="st3 st4 st5">-</tspan></text>
</svg>
